<?xml version="1.0" encoding="utf-8"?>
<!-- Generator: Adobe Illustrator 23.0.3, SVG Export Plug-In . SVG Version: 6.00 Build 0)  -->
<svg version="1.1" id="Layer_1" xmlns="http://www.w3.org/2000/svg" xmlns:xlink="http://www.w3.org/1999/xlink" x="0px" y="0px"
	 viewBox="0 0 1920 1080" style="enable-background:new 0 0 1920 1080;" xml:space="preserve">
<path d="M786.9,300.9c-3.7,0-7.4,0-11.1,0c-0.1,0-0.2,0-0.3,0c0-0.2,0-0.4,0-0.5c0.1-0.7,0-1.5,0.1-2.2c0.4-2.9,3-4.9,5.9-4.5
	c2.1,0.2,3.8,1.7,4.3,3.8c0.1-0.1,0.3-0.1,0.4-0.1c0,0,0.1,0,0.1,0c-0.8-3.3-4.2-5.1-7.4-4.1c-2.3,0.7-3.9,2.8-4,5.1
	c0,0.8,0,1.5,0,2.3c0,0,0,0.1,0,0.2c-0.2,0-0.3,0-0.4,0c-0.8,0-1.4,0.6-1.4,1.4c0,2.4,0,4.8,0,7.2c0,0.2,0.1,0.4,0.1,0.6
	c0.4,1.8,1.8,2.9,3.5,2.9c2.7,0,5.4,0,8.1,0c0.3,0,0.6,0,0.8-0.1c1.6-0.3,2.8-1.7,2.8-3.4c0-2.4,0-4.7,0-7.1
	C788.4,301.5,787.8,300.9,786.9,300.9z M787.6,302.3c0,2.4,0,4.8,0,7.2c0,1.5-1.3,2.8-2.8,2.8c-2.8,0-5.5,0-8.3,0
	c-1.6,0-2.8-1.3-2.8-2.9c0-2.4,0-4.7,0-7.1c0-0.6,0.3-0.9,0.9-0.9c2.1,0,4.1,0,6.1,0s4.1,0,6.1,0c0.4,0,0.7,0.2,0.8,0.6
	C787.6,302.1,787.6,302.2,787.6,302.3z"/>
<path d="M780.4,307c0-0.1,0.6-0.4,0.6,0.2s0,2.2,0,2.8c0,0.1,0,0.2-0.2,0.2c-0.5,0-0.4,0.1-0.4-0.4
	C780.4,309.2,780.4,307.6,780.4,307z"/>
</svg>
